<?xml version="1.0" standalone="no"?>
<!DOCTYPE svg PUBLIC "-//W3C//DTD SVG 20010904//EN"
 "http://www.w3.org/TR/2001/REC-SVG-20010904/DTD/svg10.dtd">
<svg version="1.0" xmlns="http://www.w3.org/2000/svg"
 width="215.000000pt" height="215.000000pt" viewBox="0 0 215.000000 215.000000"
 preserveAspectRatio="xMidYMid meet">
<metadata>
Created by potrace 1.14, written by Peter Selinger 2001-2017
</metadata>
<g transform="translate(0.000000,215.000000) scale(0.100000,-0.100000)"
fill="#000000" stroke="none">
<path d="M39 2142 l-36 -3 0 -1065 0 -1064 21 -1 c28 -1 2077 -1 2097 0 15 1
16 94 16 1066 l0 1065 -21 1 c-83 2 -2049 3 -2077 1z m776 -463 c6 -6 26 -85
39 -150 2 -13 32 -148 66 -299 34 -151 64 -286 66 -300 3 -14 12 -54 20 -90 9
-36 17 -74 20 -85 27 -134 38 -182 46 -190 6 -7 9 -7 7 0 -2 6 5 46 15 90 9
44 40 181 68 305 27 124 52 234 54 245 16 87 105 469 110 474 10 10 405 7 411
-3 9 -14 7 -1175 -1 -1184 -4 -4 -55 -7 -112 -7 l-104 0 -1 570 c-1 506 -3
563 -15 510 -7 -33 -16 -69 -18 -80 -3 -11 -12 -52 -20 -91 -9 -40 -18 -78
-21 -85 -2 -8 -6 -25 -9 -39 -14 -81 -168 -758 -175 -770 -12 -22 -369 -23
-381 0 -6 11 -154 660 -231 1015 -5 22 -13 56 -17 75 -6 21 -9 -190 -10 -515
0 -302 -1 -559 -1 -571 -1 -19 -7 -20 -108 -19 l-108 0 -3 590 c-1 325 0 595
2 600 4 11 400 15 411 4z"/>
</g>
</svg>
