<svg xmlns="http://www.w3.org/2000/svg" viewBox="0 0 67.8 57.77"><defs><style>.cls-1{fill:#010101;}</style></defs><g id="Layer_2" data-name="Layer 2"><g id="Layer_1-2" data-name="Layer 1"><path class="cls-1" d="M22.36,9.94H10.25A3.84,3.84,0,0,1,6.8,7.77a1.76,1.76,0,0,0-1.59-1H1A1,1,0,1,1,1,4.7H5.21A3.85,3.85,0,0,1,8.67,6.87a1.76,1.76,0,0,0,1.58,1H22.36a1,1,0,0,0,1-1V3.05a1,1,0,0,0-1-1H1A1,1,0,1,1,1,0H22.36a3.06,3.06,0,0,1,3.05,3.05V6.89A3.06,3.06,0,0,1,22.36,9.94Z"/><circle class="cls-1" cx="24.48" cy="13.85" r="1.25"/><circle class="cls-1" cx="25.87" cy="19.18" r="1.25"/><circle class="cls-1" cx="19.96" cy="25.39" r="1.25"/><circle class="cls-1" cx="19.53" cy="19.62" r="1.25"/><circle class="cls-1" cx="19.2" cy="13.85" r="1.25"/><circle class="cls-1" cx="6.33" cy="25.05" r="1.25"/><circle class="cls-1" cx="4.8" cy="31.5" r="1.25"/><circle class="cls-1" cx="3.2" cy="38.34" r="1.25"/><path class="cls-1" d="M8.82,19.7a1.24,1.24,0,1,1-.93-1.49A1.23,1.23,0,0,1,8.82,19.7Z"/><path class="cls-1" d="M10.11,14.07a1.26,1.26,0,0,1-1.5.94,1.23,1.23,0,0,1-.93-1.49,1.25,1.25,0,1,1,2.43.55Z"/><circle class="cls-1" cx="13.86" cy="25.39" r="1.25"/><circle class="cls-1" cx="13.86" cy="31.16" r="1.25"/><circle class="cls-1" cx="13.86" cy="19.62" r="1.25"/><circle class="cls-1" cx="13.92" cy="13.85" r="1.25"/><path class="cls-1" d="M55.82,51.06a.93.93,0,0,1-.29-.05,1,1,0,0,1-.7-1.28l3.89-13.1a2.15,2.15,0,0,0-1.8-2.43l-3.6-.57a1.06,1.06,0,0,1-.55-.27l-1.19-1.13-1.46,4.08a1.05,1.05,0,0,1-1.33.62,1,1,0,0,1-.62-1.32l2-5.57a1.07,1.07,0,0,1,.74-.66,1,1,0,0,1,1,.26l2.11,2,3.28.52A4.22,4.22,0,0,1,60.75,37a.5.5,0,0,1,0,.12L56.81,50.32A1,1,0,0,1,55.82,51.06Z"/><path class="cls-1" d="M49.14,37a1,1,0,0,1-1-.88l-.79-5.31-2.27,1.14a1,1,0,0,1-1,0,1.06,1.06,0,0,1-.5-.87c-.07-2.45-.82-3.36-1.34-3.56-5.87,3.51-6.29,3.61-11.65,3.58h-.16L30,31h-.21a12.19,12.19,0,0,0-6.63,2.21A1,1,0,1,1,22,31.51,14.38,14.38,0,0,1,29.79,29l.44,0h.35c5,0,5,0,10.9-3.47a1,1,0,0,1,.48-.15,2.88,2.88,0,0,1,2,.84,5.41,5.41,0,0,1,1.5,3.21l2.19-1.1a1,1,0,0,1,1.49.77l1,6.72A1,1,0,0,1,49.29,37Z"/><path class="cls-1" d="M11.25,57.77a1,1,0,0,1-1-1C10,46,14.89,37.7,19.1,33.93a1,1,0,0,1,1.46.07,1,1,0,0,1-.08,1.47,23.76,23.76,0,0,0-5.37,7.63,30.9,30.9,0,0,0-2.82,13.62,1,1,0,0,1-1,1.05Z"/><path class="cls-1" d="M66.77,46.45a1.45,1.45,0,0,1-.29,0L57.7,43.85A1,1,0,0,1,57,42.57a1,1,0,0,1,1.29-.71l8.78,2.56a1,1,0,0,1-.29,2Z"/><path class="cls-1" d="M20.92,45.48a1,1,0,0,1-1-1A13.51,13.51,0,0,1,24.72,34,1,1,0,0,1,26,35.61a11.52,11.52,0,0,0-4,8.84A1,1,0,0,1,20.92,45.48Z"/><path class="cls-1" d="M27.27,57.77a1,1,0,0,1-1-.7c-2.52-7.43-1.93-14.35-.23-17.91a1,1,0,0,1,1.39-.48,1,1,0,0,1,.48,1.38c-1.47,3.07-2,9.5.32,16.34a1,1,0,0,1-.64,1.32A1.33,1.33,0,0,1,27.27,57.77Z"/><path class="cls-1" d="M34.26,57.27a1.05,1.05,0,0,1-.82-.4c-3.29-4.19-4.41-9.44-4.07-12.55a1,1,0,0,1,1.14-.91,1,1,0,0,1,.92,1.14,16.91,16.91,0,0,0,3.64,11,1,1,0,0,1-.17,1.46A1.1,1.1,0,0,1,34.26,57.27Z"/><path class="cls-1" d="M6.56,57.77H6.42a1,1,0,0,1-.89-1.17,34.36,34.36,0,0,1,7.58-16.84,35,35,0,0,1,6.11-6,1,1,0,0,1,1.19,1.7,33.42,33.42,0,0,0-5.74,5.62A32.32,32.32,0,0,0,7.59,56.88,1,1,0,0,1,6.56,57.77Z"/></g></g></svg>