<svg xmlns="http://www.w3.org/2000/svg" viewBox="0 0 68.22 55.46"><defs><style>.cls-1{fill:#010101;}</style></defs><g id="Layer_2" data-name="Layer 2"><g id="Layer_1-2" data-name="Layer 1"><path class="cls-1" d="M49,32.78a9.69,9.69,0,0,1-9.09-6.4L33.07,7.46a1.08,1.08,0,0,1,.65-1.39,1.09,1.09,0,0,1,1.39.65L41.9,25.65a7.51,7.51,0,0,0,9.59,4.52A7.5,7.5,0,0,0,56,20.58L49.22,1.66a1.08,1.08,0,1,1,2-.73l6.79,18.92A9.67,9.67,0,0,1,49,32.78Z"/><path class="cls-1" d="M51.63,28.32a1.1,1.1,0,0,1-.79-.34,1.08,1.08,0,0,1,0-1.53,5.22,5.22,0,0,0,1.17-1.65A5.13,5.13,0,0,0,52.2,21l-2.69-7.5a1.09,1.09,0,1,1,2-.74l2.69,7.51A7.24,7.24,0,0,1,54,25.69,7.1,7.1,0,0,1,52.37,28,1.06,1.06,0,0,1,51.63,28.32Z"/><path class="cls-1" d="M49.17,10.39a1.09,1.09,0,0,1-1-.72l-.36-1a1.09,1.09,0,1,1,2-.74l.36,1a1.09,1.09,0,0,1-.66,1.38A.92.92,0,0,1,49.17,10.39Z"/><path class="cls-1" d="M34.09,8.17a1.07,1.07,0,0,1-1-.71c-.45-1.25,1-2.15,2.6-3A47.82,47.82,0,0,1,41.4,2.06a48.2,48.2,0,0,1,6-1.76c1.72-.37,3.44-.62,3.89.63A1.09,1.09,0,0,1,49.6,2.17,29.46,29.46,0,0,0,42.13,4.1a29.59,29.59,0,0,0-7,3.26,1.08,1.08,0,0,1-.68.75A1.13,1.13,0,0,1,34.09,8.17Zm1-1.45h0Z"/><path class="cls-1" d="M57.86,49a1.09,1.09,0,0,1-1-.71l-6-16.75a1.08,1.08,0,0,1,2-.73l6,16.74A1.08,1.08,0,0,1,58.23,49,1.15,1.15,0,0,1,57.86,49Z"/><path class="cls-1" d="M51.42,55.46a1.07,1.07,0,0,1-.91-.5,1.09,1.09,0,0,1,.15-1.35l6.44-6.45a1.09,1.09,0,0,1,.86-.31l9.27.81a1.07,1.07,0,0,1,1,.94,1.09,1.09,0,0,1-.7,1.16L51.79,55.4A1.19,1.19,0,0,1,51.42,55.46Zm6.85-6.41L55.6,51.73l6.52-2.34Z"/><path class="cls-1" d="M19.26,32.78A9.82,9.82,0,0,1,16,32.21a9.67,9.67,0,0,1-5.83-12.36L17,.93a1.08,1.08,0,1,1,2,.73L12.21,20.58a7.51,7.51,0,0,0,4.52,9.59,7.51,7.51,0,0,0,9.6-4.52L33.12,6.72a1.09,1.09,0,0,1,2,.74l-6.8,18.92A9.68,9.68,0,0,1,19.26,32.78Z"/><path class="cls-1" d="M16.59,28.32a1.08,1.08,0,0,1-.74-.3,7.1,7.1,0,0,1-1.66-2.33A7.24,7.24,0,0,1,14,20.24l2.69-7.51a1.09,1.09,0,0,1,2,.74L16,21a5.13,5.13,0,0,0,.14,3.83,5.22,5.22,0,0,0,1.17,1.65A1.08,1.08,0,0,1,17.38,28,1.1,1.1,0,0,1,16.59,28.32Z"/><path class="cls-1" d="M19.06,10.39a.94.94,0,0,1-.37-.07A1.07,1.07,0,0,1,18,8.94l.35-1a1.09,1.09,0,0,1,2,.74l-.35,1A1.09,1.09,0,0,1,19.06,10.39Z"/><path class="cls-1" d="M34.14,8.17a1.15,1.15,0,0,1-.37-.06,1.08,1.08,0,0,1-.68-.75,29.14,29.14,0,0,0-7-3.26,29.25,29.25,0,0,0-7.47-1.93A1.09,1.09,0,0,1,17,.93c.45-1.25,2.17-1,3.89-.63a48.2,48.2,0,0,1,6,1.76A47.12,47.12,0,0,1,32.55,4.5c1.56.81,3.05,1.71,2.61,3A1.09,1.09,0,0,1,34.14,8.17Zm-1-1.45h0Z"/><path class="cls-1" d="M10.36,49A1.19,1.19,0,0,1,10,49a1.09,1.09,0,0,1-.65-1.39l6-16.74a1.08,1.08,0,0,1,2,.73l-6,16.75A1.09,1.09,0,0,1,10.36,49Z"/><path class="cls-1" d="M16.8,55.46a1.19,1.19,0,0,1-.37-.06L.72,49.76A1.09,1.09,0,0,1,0,48.6a1.07,1.07,0,0,1,1-.94l9.27-.81a1.09,1.09,0,0,1,.86.31l6.45,6.45A1.09,1.09,0,0,1,17.71,55,1.07,1.07,0,0,1,16.8,55.46ZM6.1,49.39l6.52,2.34L10,49.05Z"/></g></g></svg>