<svg xmlns="http://www.w3.org/2000/svg" viewBox="0 0 69.04 66.21"><defs><style>.cls-1{fill:none;stroke:#010101;stroke-miterlimit:10;stroke-width:2px;}</style></defs><g id="Layer_2" data-name="Layer 2"><g id="Layer_1-2" data-name="Layer 1"><circle class="cls-1" cx="35.41" cy="36.88" r="4.56"/><line class="cls-1" x1="35.41" y1="41.44" x2="35.41" y2="65.75"/><line class="cls-1" x1="38.7" y1="40.04" x2="52.12" y2="65.75"/><line class="cls-1" x1="20.21" y1="65.75" x2="32.25" y2="40.16"/><line class="cls-1" x1="24.5" y1="56.63" x2="47.36" y2="56.63"/><polyline class="cls-1" points="30.85 37.97 24.81 41.46 16.45 26.99 53.29 5.72"/><line class="cls-1" x1="61.65" y1="20.19" x2="38.51" y2="33.55"/><polyline class="cls-1" points="57.95 13.79 62.41 21.51 67.67 18.47 57.79 1.37 52.53 4.41 55.38 9.34"/><polyline class="cls-1" points="17.21 28.3 8 33.62 14.84 45.46 24.05 40.15"/><line class="cls-1" x1="9.52" y1="36.25" x2="1.63" y2="40.81"/><line class="cls-1" x1="5.42" y1="47.39" x2="13.32" y2="42.83"/><line class="cls-1" x1="0.87" y1="39.5" x2="6.18" y2="48.71"/></g></g></svg>