<svg xmlns="http://www.w3.org/2000/svg" width="39.1" height="34.886" viewBox="0 0 39.1 34.886">
  <path id="Path_37071" data-name="Path 37071" d="M488.508,452.105h-5.746v-1.513a.592.592,0,0,0-.592-.592h-4.281a.592.592,0,0,0-.592.592v1.513h-5.012v-1.513a.592.592,0,0,0-.592-.592h-4.281a.592.592,0,0,0-.592.592v1.513h-5.012v-1.513a.592.592,0,0,0-.592-.592h-4.281a.592.592,0,0,0-.592.592v1.513h-5.746a.592.592,0,0,0-.592.592v31.6a.592.592,0,0,0,.592.592h37.915a.592.592,0,0,0,.592-.592V452.7A.592.592,0,0,0,488.508,452.105Zm-10.028-.92h3.1v3.1h-3.1v-3.1Zm-10.478,0h3.1v3.1H468v-3.1Zm-10.478,0h3.1v3.1h-3.1v-3.1Zm-6.339,2.105h5.154v1.584a.592.592,0,0,0,.592.592h4.281a.592.592,0,0,0,.592-.592V453.29h5.012v1.584a.592.592,0,0,0,.592.592h4.281a.592.592,0,0,0,.592-.592V453.29h5.012v1.584a.592.592,0,0,0,.592.592h4.281a.592.592,0,0,0,.592-.592V453.29h5.154v4.992h-36.73Zm0,30.411v-3.374h10.028a.592.592,0,1,0,0-1.185H451.185V459.467h36.73v19.675H477.9a.592.592,0,1,0,0,1.185h10.015V483.7Zm18.365-17.215a4.046,4.046,0,1,0,4.046,4.046A4.051,4.051,0,0,0,469.55,466.486Zm0,6.907a2.861,2.861,0,1,1,2.861-2.861A2.865,2.865,0,0,1,469.55,473.393Zm-.592-9.168v-1.593a.592.592,0,1,1,1.185,0v1.593a.592.592,0,0,1-1.185,0Zm4.633,2.266a.592.592,0,0,1,0-.838l1.126-1.126a.592.592,0,0,1,.838.838l-1.126,1.126a.592.592,0,0,1-.838,0Zm3.859,4.633h-1.593a.592.592,0,0,1,0-1.185h1.593a.592.592,0,0,1,0,1.185Zm-1.895,4.574a.592.592,0,1,1-.838.838l-1.126-1.126a.592.592,0,0,1,.838-.838Zm-5.412,1.14v1.592a.592.592,0,1,1-1.185,0v-1.592a.592.592,0,1,1,1.185,0Zm-4.633-2.266a.592.592,0,0,1,0,.838l-1.126,1.126a.592.592,0,1,1-.838-.838l1.126-1.126A.592.592,0,0,1,465.51,474.573Zm-2.266-3.448h-1.592a.592.592,0,1,1,0-1.185h1.592a.592.592,0,0,1,0,1.185Zm.3-5.759a.592.592,0,1,1,.838-.838l1.126,1.126a.592.592,0,1,1-.838.838Z" transform="translate(-450 -450)" fill="#425a31"/>
</svg>
