<svg xmlns="http://www.w3.org/2000/svg" width="33.935" height="46.724" viewBox="0 0 33.935 46.724">
  <g id="Group_35137" data-name="Group 35137" transform="translate(-153.87 -193.26)">
    <g id="Group_35121" data-name="Group 35121" transform="translate(153.87 193.26)">
      <g id="Group_35118" data-name="Group 35118" transform="translate(0 11.247)">
        <path id="Path_37053" data-name="Path 37053" d="M170.837,259.315c-9.356,0-16.967-7.015-16.967-15.638,0-7.048,5.238-16.909,12.754-19.788l.134-.052h8.16l.134.052c7.516,2.879,12.754,12.739,12.754,19.788C187.8,252.3,180.193,259.315,170.837,259.315Zm-3.793-33.935c-6.667,2.648-11.632,11.805-11.632,18.3,0,7.772,6.92,14.1,15.425,14.1s15.425-6.323,15.425-14.1c0-6.492-4.965-15.649-11.632-18.3Z" transform="translate(-153.87 -223.838)" fill="#425a31"/>
      </g>
      <g id="Group_35119" data-name="Group 35119" transform="translate(10.798 8.162)">
        <path id="Path_37054" data-name="Path 37054" d="M193.352,220.078h-7.893a2.22,2.22,0,0,1-2.232-2.214v-.2a2.216,2.216,0,0,1,2.214-2.214h7.911a2.216,2.216,0,0,1,2.214,2.214v.2A2.216,2.216,0,0,1,193.352,220.078Zm-7.911-3.085a.672.672,0,0,0-.672.671v.2a.672.672,0,0,0,.672.671h7.893a.676.676,0,0,0,.69-.671v-.2a.672.672,0,0,0-.672-.671Z" transform="translate(-183.226 -215.451)" fill="#425a31"/>
      </g>
      <g id="Group_35120" data-name="Group 35120" transform="translate(7.868 0)">
        <path id="Path_37055" data-name="Path 37055" d="M189.537,202.965H179.184l-1.4-4.028-2.527-5.677,5.3,1.59a7,7,0,0,1,7.6,0l5.3-1.59L190.909,199Zm-9.255-1.543h8.158l1.037-2.99,1.211-2.73-2.811.843-.31-.23a5.446,5.446,0,0,0-6.411,0l-.311.23-2.809-.843,1.186,2.669Z" transform="translate(-175.261 -193.26)" fill="#425a31"/>
      </g>
    </g>
    <g id="Group_35124" data-name="Group 35124" transform="translate(163.896 211.448)">
      <g id="Group_35122" data-name="Group 35122" transform="translate(0 0)">
        <path id="Path_37056" data-name="Path 37056" d="M191.155,264.3a8.511,8.511,0,0,1-3.571-.957,5,5,0,0,0-1.827-.586,6.5,6.5,0,0,0-3.376,1.375.771.771,0,0,1-1.108-1.052c.037-.052,3.713-5.245,3.713-8.807a5.119,5.119,0,0,0-1.15-3.129,5.182,5.182,0,0,1-1.164-3.041c0-3.279,2.422-5.4,6.17-5.4a6.035,6.035,0,0,1,6.17,6.17h-1.542a4.526,4.526,0,0,0-4.628-4.627c-1.391,0-4.627.376-4.627,3.856a3.8,3.8,0,0,0,.9,2.18,6.637,6.637,0,0,1,1.412,3.99c0,2.383-1.324,5.236-2.449,7.23a5.475,5.475,0,0,1,1.678-.289,6.077,6.077,0,0,1,2.459.721,7.053,7.053,0,0,0,2.939.821,2.618,2.618,0,0,0,2.4-1.127l1.375.7A4.1,4.1,0,0,1,191.155,264.3Z" transform="translate(-181.129 -242.71)" fill="#425a31"/>
      </g>
      <g id="Group_35123" data-name="Group 35123" transform="translate(0.771 10.797)">
        <rect id="Rectangle_2536" data-name="Rectangle 2536" width="7.712" height="1.543" fill="#425a31"/>
      </g>
    </g>
  </g>
</svg>
