<svg xmlns="http://www.w3.org/2000/svg" width="47.376" height="47" viewBox="0 0 47.376 47">
  <g id="Group_35140" data-name="Group 35140" transform="translate(-256.425 -209.446)">
    <path id="Path_37068" data-name="Path 37068" d="M491.646,336.767l-8.748,6.019-2.2-3.2-.9.621,2.82,4.1,9.651-6.64Z" transform="translate(-205.348 -117.047)" fill="#425a31"/>
    <path id="Path_37069" data-name="Path 37069" d="M303.183,239.291c-1.82,1.243-3.642,2.566-5.416,3.933a1.166,1.166,0,0,1-.848.27.46.46,0,0,1-.325-.19l-6.177-9a.461.461,0,0,1-.061-.372,1.164,1.164,0,0,1,.558-.695c1.312-.8,2.621-1.631,3.888-2.472l-.606-.913c-1.256.834-2.552,1.657-3.851,2.449a2.321,2.321,0,0,0-.952,1.083H287.1c6.225-6.952,7.229-17.1,7.27-17.55l.049-.528-.527-.066c-9.5-1.183-13.337-5.3-13.375-5.346l-.409-.451-.406.452c-.037.041-3.83,4.157-13.373,5.345l-.537.067.061.538c.05.446,1.254,10.544,7.479,17.539h-2.5a2.32,2.32,0,0,0-.951-1.082c-1.3-.791-2.595-1.615-3.852-2.449l-.606.913c1.269.842,2.577,1.674,3.889,2.472a1.161,1.161,0,0,1,.557.694.461.461,0,0,1-.061.372l-6.178,9a.459.459,0,0,1-.324.19,1.153,1.153,0,0,1-.849-.271c-1.771-1.365-3.593-2.688-5.416-3.932l-.618.9c1.806,1.233,3.611,2.544,5.364,3.9,1.614,1.073,2.505.185,2.746-.167l.451-.656a5.111,5.111,0,0,1,1.2,1.391c.095.19.158.332.223.477l.094.206a2.393,2.393,0,0,0-.092,3.919l.094.07a2.381,2.381,0,0,0,1.867.422,2.438,2.438,0,0,0,3.094,2.406,2.265,2.265,0,0,0,.987,1.891,2.371,2.371,0,0,0,2.191.362c0,.046,0,.091.007.137a2.216,2.216,0,0,0,3.912,1.08,2.547,2.547,0,0,0,3.921-2.194,3.661,3.661,0,0,0,2.1.916,2.547,2.547,0,0,0,2.558-2.582l.15.1a2.551,2.551,0,0,0,4-2.147l.335.227a2.5,2.5,0,0,0,3.558-.661,2.558,2.558,0,0,0-.664-3.56l-8.361-5.661h-1.608a2.853,2.853,0,0,1-3.1-2.286l-.064-.476h-5.691l-.078.455a3.7,3.7,0,0,1-1.383,2.658,1.859,1.859,0,0,1-1.063.275v-3.789l4.344-2.424h11.8c.094.509,6.377,9.441,6.377,9.441a1.946,1.946,0,0,0,2.746.167c1.758-1.354,3.563-2.665,5.365-3.9Zm-36.029,9.158-.094-.07a1.305,1.305,0,0,1-.518-.862,1.328,1.328,0,0,1,1.3-1.509,1.3,1.3,0,0,1,.779.257l.1.071A1.314,1.314,0,0,1,267.154,248.45Zm4.78,2.147a1.4,1.4,0,0,1-1.921.287,1.364,1.364,0,0,1-.321-1.863,2.351,2.351,0,0,0,.182-.193,2.44,2.44,0,0,0,.2-.336l.493-.667a1.417,1.417,0,0,1,1.921-.287,1.375,1.375,0,0,1,.286,1.921Zm3.087,2.286a1.4,1.4,0,0,1-1.92.286,1.372,1.372,0,0,1-.286-1.92l.843-1.139h0l.749-1.012a1.373,1.373,0,1,1,2.208,1.634Zm2.956,1.714-.22.3a1.153,1.153,0,0,1-1.581.236,1.13,1.13,0,0,1-.236-1.581l.22-.3a1.13,1.13,0,0,1,1.817,1.345Zm-5.905-18.332v5.3l.381.122a3.024,3.024,0,0,0,2.332-.319A4.389,4.389,0,0,0,276.6,238.4h3.862a3.981,3.981,0,0,0,4.083,2.761h1.272l8.08,5.471c.873.419.6,1.712.378,2.035a1.449,1.449,0,0,1-2.037.376l-2.057-1.395h0l-5.776-3.965-.62.9,5.776,3.966a1.465,1.465,0,0,1,.378,2.035,1.5,1.5,0,0,1-2.034.378L282.131,247l-.046.067-.022-.015-.6.914,3.953,2.617A1.463,1.463,0,0,1,283.763,253l-3.718-2.651-.636.893,1.373.979-.028.041a1.463,1.463,0,0,1-.56,2.645,1.447,1.447,0,0,1-1.05-.207,2.2,2.2,0,0,0-.751-2.569,2.146,2.146,0,0,0-1.154-.405l.256-.346a2.472,2.472,0,0,0-.515-3.454,2.537,2.537,0,0,0-2.947.022,2.446,2.446,0,0,0-.891-1.3,2.5,2.5,0,0,0-2.916,0,2.592,2.592,0,0,0-2.382-1.746,2.357,2.357,0,0,0-.318.038c-.044-.094-.083-.181-.12-.263-.07-.156-.138-.309-.24-.514a6.283,6.283,0,0,0-1.557-1.812l5.1-7.434a1.5,1.5,0,0,0,.2-.444h4.35Zm2.765-2.877c-5.745-5.871-7.466-14.861-7.818-17.129,7.918-1.1,11.883-4.128,13.094-5.228,1.211,1.1,5.18,4.131,13.1,5.229-.3,2.258-1.859,11.3-7.624,17.128Z" transform="translate(0 0)" fill="#425a31"/>
    <rect id="Rectangle_2543" data-name="Rectangle 2543" width="1.096" height="1.096" transform="translate(295.159 239.044) rotate(-31.449)" fill="#425a31"/>
    <rect id="Rectangle_2544" data-name="Rectangle 2544" width="1.095" height="1.096" transform="matrix(0.853, -0.522, 0.522, 0.853, 296.303, 240.913)" fill="#425a31"/>
    <rect id="Rectangle_2545" data-name="Rectangle 2545" width="1.096" height="1.096" transform="matrix(0.57, -0.821, 0.821, 0.57, 262.255, 241.408)" fill="#425a31"/>
    <rect id="Rectangle_2546" data-name="Rectangle 2546" width="1.096" height="1.095" transform="matrix(0.571, -0.821, 0.821, 0.571, 263.506, 239.608)" fill="#425a31"/>
  </g>
</svg>
