<svg xmlns="http://www.w3.org/2000/svg" width="39.665" height="35.078" viewBox="0 0 39.665 35.078">
  <g id="Group_35139" data-name="Group 35139" transform="translate(-109.335 -68.493)">
    <path id="Path_37064" data-name="Path 37064" d="M120.63,80.992,125.9,77.54l5.269,3.453a.834.834,0,0,0,.914-1.4l-5.724-3.751a.843.843,0,0,0-.916,0L119.716,79.6a.834.834,0,0,0,.914,1.4Z" transform="translate(6.682 4.821)" fill="#425a31"/>
    <path id="Path_37065" data-name="Path 37065" d="M121.32,79.078a.833.833,0,0,0-.834.834v4.076a.834.834,0,0,0,.834.834h7.626a.834.834,0,0,0,.834-.834V79.912a.834.834,0,1,0-1.668,0v3.242h-5.958V79.912A.832.832,0,0,0,121.32,79.078Z" transform="translate(7.448 7.07)" fill="#425a31"/>
    <rect id="Rectangle_2537" data-name="Rectangle 2537" width="2.007" height="1.668" transform="translate(125.834 97.914)" fill="#425a31"/>
    <rect id="Rectangle_2538" data-name="Rectangle 2538" width="9.755" height="1.668" transform="translate(129.573 97.914)" fill="#425a31"/>
    <rect id="Rectangle_2539" data-name="Rectangle 2539" width="6.361" height="1.668" transform="translate(125.834 94.902)" fill="#425a31"/>
    <rect id="Rectangle_2540" data-name="Rectangle 2540" width="5.401" height="1.668" transform="translate(133.927 94.902)" fill="#425a31"/>
    <path id="Path_37066" data-name="Path 37066" d="M142.027,68.493h-.834v6.141H123.2a6.958,6.958,0,0,0-13.867.834V96.78h.018a6.974,6.974,0,0,0,6.959,6.792H141.97a7.025,7.025,0,0,0,7.007-6.792H149V75.468A6.983,6.983,0,0,0,142.027,68.493Zm.834,1.733a5.316,5.316,0,0,1,4.472,5.242v16.79a6.971,6.971,0,0,0-4.472-2.4ZM111,75.468a5.307,5.307,0,1,1,10.615,0v16.79a6.967,6.967,0,0,0-10.615,0ZM141.97,101.9H116.312a5.216,5.216,0,1,1,5.306-5.124h1.668V76.3h17.907v15.17h.834a5.307,5.307,0,0,1,5.294,5.189A5.362,5.362,0,0,1,141.97,101.9Z" fill="#425a31"/>
  </g>
</svg>
