<svg xmlns="http://www.w3.org/2000/svg" width="41.964" height="42.573" viewBox="0 0 41.964 42.573">
  <g id="Group_35138" data-name="Group 35138" transform="translate(-972.097 -971.692)">
    <g id="Group_35126" data-name="Group 35126" transform="translate(972.097 971.692)">
      <path id="Path_37057" data-name="Path 37057" d="M619.779,658.693a1.194,1.194,0,0,0-1.193-1.193H600.193A1.2,1.2,0,0,0,599,658.693v4.594a1.2,1.2,0,0,0,1.193,1.193h18.393a1.194,1.194,0,0,0,1.193-1.193Zm-1.218,4.57H600.218v-4.545h18.344Z" transform="translate(-594.292 -650.114)" fill="#425a31"/>
      <path id="Path_37058" data-name="Path 37058" d="M619.17,932.5H599.609a.609.609,0,1,0,0,1.218H619.17a.609.609,0,0,0,0-1.218Z" transform="translate(-594.292 -913.953)" fill="#425a31"/>
      <path id="Path_37059" data-name="Path 37059" d="M619.779,1066.109a.609.609,0,0,0-.609-.609H599.609a.609.609,0,1,0,0,1.218H619.17A.609.609,0,0,0,619.779,1066.109Z" transform="translate(-594.292 -1041.556)" fill="#425a31"/>
      <path id="Path_37060" data-name="Path 37060" d="M599.609,1198.5a.609.609,0,1,0,0,1.218h15.909a.609.609,0,0,0,0-1.218Z" transform="translate(-594.292 -1169.158)" fill="#425a31"/>
      <path id="Path_37061" data-name="Path 37061" d="M1086.45,1081.151a9.05,9.05,0,1,0,2.651,6.4A8.992,8.992,0,0,0,1086.45,1081.151Zm-6.4,14.232a7.833,7.833,0,1,1,7.833-7.833A7.842,7.842,0,0,1,1080.05,1095.383Z" transform="translate(-1047.137 -1054.028)" fill="#425a31"/>
      <path id="Path_37062" data-name="Path 37062" d="M504.518,512.594H486.3a2.083,2.083,0,0,1-2.08-2.08V478.8a2.083,2.083,0,0,1,2.08-2.08h23.639a2.083,2.083,0,0,1,2.08,2.08v18.541a.609.609,0,0,0,1.218,0V478.8a3.3,3.3,0,0,0-3.3-3.3H486.3a3.3,3.3,0,0,0-3.3,3.3v31.715a3.3,3.3,0,0,0,3.3,3.3h18.22a.609.609,0,0,0,0-1.218Z" transform="translate(-483 -475.5)" fill="#425a31"/>
      <path id="Path_37063" data-name="Path 37063" d="M1199.426,1198.679a.609.609,0,0,0-.861,0l-3.13,3.13-3.13-3.13a.609.609,0,0,0-.861.861l3.13,3.13-3.13,3.13a.609.609,0,0,0,.861.861l3.13-3.13,3.13,3.13a.609.609,0,0,0,.861-.861l-3.13-3.13,3.13-3.13A.609.609,0,0,0,1199.426,1198.679Z" transform="translate(-1162.522 -1169.159)" fill="#425a31"/>
    </g>
  </g>
</svg>
