<svg xmlns="http://www.w3.org/2000/svg" viewBox="0 0 81.04 63.88"><defs><style>.cls-1{fill:#536c46;stroke:#536c46;stroke-miterlimit:10;}</style></defs><g id="Layer_2" data-name="Layer 2"><g id="Layer_1-2" data-name="Layer 1"><path class="cls-1" d="M30.42,47.08h.47V44.19l2.26-3.8h-.53l-1.15,2c-.29.53-.56,1-.77,1.45h0c-.23-.48-.48-.91-.76-1.44l-1.1-2h-.54l2.14,3.79Z"/><polygon class="cls-1" points="37.26 40.78 37.26 40.38 33.95 40.38 33.95 47.08 37.42 47.08 37.42 46.69 34.42 46.69 34.42 43.76 37.1 43.76 37.1 43.36 34.42 43.36 34.42 40.78 37.26 40.78"/><path class="cls-1" d="M38.07,47.08h.49l.82-2.34H42l.85,2.34h.49L41,40.39h-.46Zm2.65-6.16c.1.38.19.72.35,1.18l.82,2.24H39.53l.83-2.26c.13-.42.24-.77.34-1.16Z"/><path class="cls-1" d="M48.12,42.08a1.69,1.69,0,0,0-.47-1.19,2.43,2.43,0,0,0-1.81-.55,8.38,8.38,0,0,0-1.44.13v6.61h.47V44h1c.89,0,1.31.48,1.5,1.44a9.84,9.84,0,0,0,.43,1.63h.5a8.6,8.6,0,0,1-.5-1.81,1.72,1.72,0,0,0-1-1.42v0A1.77,1.77,0,0,0,48.12,42.08Zm-2.19,1.55H44.87V40.81a4.5,4.5,0,0,1,1-.09c1.06,0,1.81.42,1.81,1.44S47,43.63,45.93,43.63Z"/><path class="cls-1" d="M52.75,45.34c0-1-.58-1.5-1.69-1.94s-1.39-.76-1.39-1.5a1.27,1.27,0,0,1,1.45-1.23,2.15,2.15,0,0,1,1.19.32l.18-.4a2.72,2.72,0,0,0-1.34-.31A1.77,1.77,0,0,0,49.21,42c0,.91.64,1.47,1.73,1.84s1.35.82,1.35,1.57a1.42,1.42,0,0,1-1.61,1.4,2.61,2.61,0,0,1-1.47-.45l-.18.4a3.05,3.05,0,0,0,1.6.45A1.87,1.87,0,0,0,52.75,45.34Z"/><path class="cls-1" d="M79.55,52.88l-1-.63a82.3,82.3,0,0,1-7.41-5.31l-1.36-1-1.47,2.55c-1.52-.42-3.06-.81-4.59-1.16l-.19.82c1.45.33,2.9.69,4.33,1.08L64.2,55.5l-.17.29-2.21,3.83a91.94,91.94,0,0,0-20.67-2.47,28.4,28.4,0,1,0-1.5,0A92.13,92.13,0,0,0,22.5,58.9l.17.83a91.7,91.7,0,0,1,39.26.78l.31.08,2.55-4.43,5.21-9,.59.46c2.22,1.7,4.33,3.33,6.49,4.73l-7.88,1,1.55,7.26-4.5-3.49-.51.66,6.31,4.91L70.21,54ZM13,28.83A27.49,27.49,0,1,1,40.52,56.32,27.52,27.52,0,0,1,13,28.83Z"/><path class="cls-1" d="M19.22,59.62,17,55.79l-.16-.27-3.64-6.33c1.36-.37,2.75-.72,4.13-1l-.19-.81c-1.46.33-2.94.71-4.39,1.11L11.29,45.9l-1.35,1a86,86,0,0,1-7.42,5.31l-1,.63L10.83,54,9,62.62,15.12,58l-.51-.67-4.32,3.27,1.55-7.29L4,52.34c2.16-1.41,4.28-3,6.49-4.74l.59-.45,5.21,9,2.55,4.43.31-.08,1.28-.3-.19-.82Z"/><path class="cls-1" d="M26.06,34.44v-1l2-2.1c6.13-6,8.81-9.11,8.81-12.91,0-2.51-1-5-4.78-5a7.27,7.27,0,0,0-4.68,1.9l-.64-1.12A8.34,8.34,0,0,1,32.43,12a5.79,5.79,0,0,1,6.13,6.07c0,4.34-3.15,7.83-8.68,13.29L28.33,33v.07H39.17v1.36Z"/><path class="cls-1" d="M53.94,13.83h-8.3l-1.08,7.08a9.7,9.7,0,0,1,2-.17,9,9,0,0,1,4.1,1,6.27,6.27,0,0,1,3.42,5.73,7.2,7.2,0,0,1-7.42,7.39,8.84,8.84,0,0,1-5.08-1.43l.64-1.28a8.47,8.47,0,0,0,4.54,1.32,5.54,5.54,0,0,0,5.7-5.69c0-3.19-2-5.6-6.37-5.6a19.26,19.26,0,0,0-3.16.24l1.43-10h9.55Z"/></g></g></svg>