<svg xmlns="http://www.w3.org/2000/svg" width="206.64" height="147.391" viewBox="0 0 206.64 147.391">
  <defs>
    <style>
      .cls-1 {
        fill: #fff;
      }
    </style>
  </defs>
  <g id="Group_35071" data-name="Group 35071" transform="translate(-1516.811 -1474)">
    <path id="Path_47" data-name="Path 47" class="cls-1" d="M554.843,217.326l-10.736,48.43-10.735-48.43H515.249v51.62h9.639V219.889l10.977,49.056H552.35l10.977-49.06v49.06h9.639v-51.62Z" transform="translate(1001.745 1256.677)"/>
    <path id="Path_48" data-name="Path 48" class="cls-1" d="M597.723,217.348l-16.537,51.6h9.976l4.6-14.172,22.9-.021,4.727,14.193h9.974l-16.992-51.6Zm9.331,2.6,8.862,26.6-17.491.014Z" transform="translate(998.049 1256.675)"/>
    <g id="Group_10" data-name="Group 10" transform="translate(1636.168 1474.001)">
      <path id="Path_49" data-name="Path 49" class="cls-1" d="M686.19,217.324,651.139,250.4v18.543H641.5V217.324h9.639v21.327l21.674-21.327ZM670.5,247.77,686,268.945h-12.42l-11.332-15.883c-5.605-7.856-11.11-2.66-11.11-2.66s12.59-11.881,19.361-2.633" transform="translate(-641.5 -217.324)"/>
    </g>
    <path id="Path_50" data-name="Path 50" class="cls-1" d="M693.609,217.323v51.621h37.984v-8.183H703.248V247.18h25.584v-8.091H703.248V225.506h28.346v-8.183Z" transform="translate(991.747 1256.677)"/>
    <g id="Group_11" data-name="Group 11" transform="translate(1517.101 1528.457)">
      <path id="Path_51" data-name="Path 51" class="cls-1" d="M540.662,300.669c5.3,0,7.877-4,7.877-7.967,0-3.834-3.037-8.1-6.873-8.1H525v43.528h-9.639V276.508h26.3c8.831,0,16.511,7.365,16.511,15.838,0,9.047-6.272,16.28-13.9,16.409l13.557,19.374H546.587l-13.559-19.377c-7.992,0-8.027,6.455-8.027,6.455h.008s-.008-14.537,7.985-14.537Z" transform="translate(-515.362 -275.098)"/>
      <path id="Path_52" data-name="Path 52" class="cls-1" d="M612.053,302.241c0,15.038-10.368,27.228-25.406,27.228S561.7,317.279,561.7,302.241s9.913-27.227,24.951-27.227,25.406,12.19,25.406,27.227m-9.621,0c0-10.1-5.665-19.136-15.763-19.136s-15.353,9.037-15.353,19.136,5.254,19.138,15.353,19.138,15.763-9.036,15.763-19.138" transform="translate(-517.959 -275.014)"/>
      <path id="Path_53" data-name="Path 53" class="cls-1" d="M667.87,302.582c0,15.038-10.368,27.228-25.406,27.228s-24.95-12.19-24.95-27.228,9.912-27.227,24.95-27.227,25.406,12.19,25.406,27.227m-9.62,0c0-10.1-5.666-19.137-15.764-19.137s-15.353,9.037-15.353,19.137,5.255,19.138,15.353,19.138,15.764-9.037,15.764-19.138" transform="translate(-521.088 -275.033)"/>
    </g>
    <path id="Path_54" data-name="Path 54" class="cls-1" d="M712.416,276.515l-10.736,48.43-10.735-48.43H672.822v51.621h9.641V279.078l10.975,49.058h16.485l10.978-49.06v49.06h9.638V276.515Z" transform="translate(992.912 1253.359)"/>
    <rect id="Rectangle_14" data-name="Rectangle 14" class="cls-1" width="21.144" height="1.852" transform="translate(1516.811 1609.069)"/>
    <rect id="Rectangle_15" data-name="Rectangle 15" class="cls-1" width="21.144" height="1.852" transform="translate(1702.198 1609.069)"/>
    <g id="Group_12" data-name="Group 12" transform="translate(1546.632 1599.026)">
      <path id="Path_55" data-name="Path 55" class="cls-1" d="M561.233,358.916c0-3.85-2.357-7.125-6.208-7.125s-6.055,3.275-6.055,7.125,2.2,7.125,6.055,7.125,6.208-3.275,6.208-7.125m2.323,0c0,5.049-3.482,9.143-8.531,9.143s-8.378-4.094-8.378-9.143,3.328-9.142,8.378-9.142,8.531,4.093,8.531,9.142" transform="translate(-546.647 -349.774)"/>
      <path id="Path_56" data-name="Path 56" class="cls-1" d="M566.665,355.1h2.166v8.512c0,1.5,1.012,2.708,3.014,2.708,1.881,0,2.862-1.824,2.862-3.32v-7.9h2.166v12.776h-2.166v-1.281a3.775,3.775,0,0,1-3.168,1.587,5.1,5.1,0,0,1-2.708-.669,4.4,4.4,0,0,1-2.166-3.9Z" transform="translate(-547.769 -350.072)"/>
      <path id="Path_57" data-name="Path 57" class="cls-1" d="M583.592,356.563v7.906a.982.982,0,0,0,.95.974h1.217v2.167h-1.192a3.144,3.144,0,0,1-3.14-3.141v-7.906h-2.166V354.83h2.166v-4.552h2.166v4.552h2.166v1.733Z" transform="translate(-548.475 -349.802)"/>
      <path id="Path_58" data-name="Path 58" class="cls-1" d="M598.1,364.149c0,2.813-2.533,4.09-5.16,4.008-3.371-.107-5.262-2.273-5.262-4.418h1.983c0,1.284,1.331,2.5,3.279,2.566,1.895.064,2.95-.837,2.95-1.958,0-.833-.8-1.272-1.9-1.584l-2.9-.776c-1.372-.368-3.112-1.5-3.112-3.467,0-2.064,2.172-3.738,4.852-3.738,3.2,0,5.145,2.165,4.85,3.951H595.7c0-1.288-1.234-2.1-2.756-2.1s-2.755.767-2.755,1.714c0,.888.66,1.313,1.61,1.583l3.007.806c1.472.395,3.3,1.286,3.3,3.413" transform="translate(-548.947 -350.055)"/>
      <path id="Path_59" data-name="Path 59" class="cls-1" d="M600.856,354.832h2.166v12.775h-2.166Zm-.371-3.476c0-.6.651-1.082,1.455-1.082s1.456.484,1.456,1.082-.652,1.081-1.456,1.081-1.455-.484-1.455-1.081" transform="translate(-549.665 -349.802)"/>
      <path id="Path_60" data-name="Path 60" class="cls-1" d="M610.885,366.061c1.8,0,3.25-1.451,3.25-4.688s-1.455-4.69-3.25-4.69-3.249,2.071-3.249,4.69,1.455,4.688,3.249,4.688m0-11.229a3.745,3.745,0,0,1,3.25,1.918v-6.475H616.3v17.333h-2.166v-1.919a3.833,3.833,0,0,1-3.25,2.223c-2.992.1-5.416-2.925-5.416-6.539s2.425-6.541,5.416-6.541" transform="translate(-549.944 -349.802)"/>
      <path id="Path_61" data-name="Path 61" class="cls-1" d="M628.739,360.137c-.427-2.133-1.881-3.477-3.628-3.5-1.745.026-3.2,1.38-3.628,3.5Zm2.179,1.733h-9.554c.142,2.839,1.789,4.4,3.746,4.427a3.654,3.654,0,0,0,3.43-2.694h2.148a5.553,5.553,0,0,1-5.579,4.556c-3.359-.028-5.815-2.439-5.815-6.7s2.525-6.694,5.815-6.694,5.815,2.451,5.815,6.694c0,.138,0,.273-.008.406" transform="translate(-550.719 -350.054)"/>
    </g>
    <path id="Path_62" data-name="Path 62" class="cls-1" d="M650.86,365.749v1.861H639.813V350.277h2.166v15.472Z" transform="translate(994.763 1249.224)"/>
    <g id="Group_13" data-name="Group 13" transform="translate(1646.662 1599.499)">
      <path id="Path_63" data-name="Path 63" class="cls-1" d="M652.988,354.832h2.166v12.775h-2.166Zm-.371-3.476c0-.6.651-1.082,1.455-1.082s1.456.484,1.456,1.082-.652,1.081-1.456,1.081-1.455-.484-1.455-1.081" transform="translate(-652.617 -350.275)"/>
    </g>
    <path id="Path_64" data-name="Path 64" class="cls-1" d="M669.25,355.106l-4.287,12.776h-3.538l-4.4-12.776h2.312l3.854,11.881,3.748-11.881Z" transform="translate(993.798 1248.953)"/>
    <g id="Group_14" data-name="Group 14" transform="translate(1664.319 1599.499)">
      <path id="Path_65" data-name="Path 65" class="cls-1" d="M671.694,354.832h2.166v12.775h-2.166Zm-.371-3.476c0-.6.651-1.082,1.455-1.082s1.456.484,1.456,1.082-.652,1.081-1.456,1.081-1.455-.484-1.455-1.081" transform="translate(-671.323 -350.275)"/>
      <path id="Path_66" data-name="Path 66" class="cls-1" d="M687.273,359.352v8.512h-2.166V359.32c0-1.5-1.012-2.678-3.014-2.678a2.724,2.724,0,0,0-3.014,2.678v8.543h-2.166V355.088h2.166v1.586a4.273,4.273,0,0,1,3.32-1.892,4.624,4.624,0,0,1,4.875,4.57" transform="translate(-671.636 -350.528)"/>
      <path id="Path_67" data-name="Path 67" class="cls-1" d="M699.245,360.377a3.536,3.536,0,1,0-3.537,3.5,3.415,3.415,0,0,0,3.537-3.5m-.145,4.2a4.089,4.089,0,0,1,2.249,3.458c0,2.383-2.51,4.316-5.607,4.316s-5.607-1.932-5.607-4.316a3.287,3.287,0,0,1,.017-.336h2.019a1.474,1.474,0,0,0-.022.257c0,1.233,1.693,2.539,3.594,2.539,2.4,0,3.595-1.306,3.595-2.539s-.832-2.333-3.535-2.386c-4.24-.081-5.8-2.856-5.8-5.2a5.536,5.536,0,0,1,5.7-5.353,6,6,0,0,1,2.377.484l1.9-1.9,1.423,1.423-1.615,1.616a5.172,5.172,0,0,1,1.615,3.734,5.015,5.015,0,0,1-2.314,4.208" transform="translate(-672.37 -350.461)"/>
    </g>
  </g>
</svg>
