<svg xmlns="http://www.w3.org/2000/svg" viewBox="0 0 284.15 202.67"><defs><style>.cls-1{fill:#526f3e;}</style></defs><g id="Layer_2" data-name="Layer 2"><g id="Layer_1-2" data-name="Layer 1"><polygon class="cls-1" points="54.7 0 39.93 66.6 25.17 0 0.25 0 0.25 70.98 13.51 70.98 13.51 3.53 28.6 70.98 51.27 70.98 66.36 3.52 66.36 70.98 79.62 70.98 79.62 0 54.7 0"/><path class="cls-1" d="M121.41,3.6l12.18,36.58h-24ZM108.58,0,85.84,71H99.55l6.32-19.49,31.49,0L143.86,71h13.71L134.21,0Z"/><path class="cls-1" d="M204,41.87,225.32,71H208.24L192.66,49.14c-7.71-10.8-15.28-3.65-15.28-3.65S194.69,29.15,204,41.87M225.58,0l-48.2,45.49V71H164.12V0h13.26V29.33L207.18,0Z"/><polygon class="cls-1" points="231.76 0 231.76 70.98 284 70.98 284 59.73 245.02 59.73 245.02 41.05 280.2 41.05 280.2 29.93 245.02 29.93 245.02 11.25 284 11.25 284 0 231.76 0"/><path class="cls-1" d="M35.19,110.05c7.28,0,10.83-5.5,10.83-11C46,93.82,41.84,88,36.57,88H13.65v59.85H.4v-71H36.57c12.14,0,22.7,10.13,22.7,21.78,0,12.44-8.62,22.39-19.11,22.56L58.8,147.8H43.33L24.69,121.16c-11,0-11,8.87-11,8.87h0s0-20,11-20Z"/><path class="cls-1" d="M116.55,112.32c0-13.88-7.78-26.31-21.67-26.31S73.77,98.44,73.77,112.32,81,138.64,94.88,138.64s21.67-12.43,21.67-26.32m13.23,0c0,20.68-14.25,37.44-34.93,37.44S60.54,133,60.54,112.32,74.17,74.88,94.85,74.88s34.93,16.77,34.93,37.44"/><path class="cls-1" d="M189,112.76c0-13.88-7.79-26.31-21.68-26.31s-21.11,12.43-21.11,26.31,7.22,26.32,21.11,26.32S189,126.65,189,112.76m13.23,0c0,20.68-14.26,37.45-34.94,37.45S133,133.44,133,112.76s13.63-37.44,34.31-37.44,34.94,16.77,34.94,37.44"/><polygon class="cls-1" points="259.23 76.83 244.46 143.43 229.7 76.83 204.78 76.83 204.78 147.81 218.04 147.81 218.04 80.36 233.13 147.81 255.8 147.81 270.89 80.35 270.89 147.81 284.15 147.81 284.15 76.83 259.23 76.83"/><rect class="cls-1" y="185.73" width="29.08" height="2.55"/><rect class="cls-1" x="254.92" y="185.73" width="29.08" height="2.55"/><path class="cls-1" d="M64.26,184.49c0,6.95-4.79,12.57-11.73,12.57S41,191.44,41,184.49s4.57-12.57,11.52-12.57S64.26,177.55,64.26,184.49Zm-3.2,0c0-5.29-3.24-9.8-8.53-9.8s-8.33,4.51-8.33,9.8,3,9.8,8.33,9.8S61.06,189.79,61.06,184.49Z"/><path class="cls-1" d="M67,178.83h3v11.71c0,2.05,1.39,3.72,4.14,3.72,2.59,0,3.94-2.51,3.94-4.56V178.83h3V196.4h-3v-1.76a5.21,5.21,0,0,1-4.36,2.18A7,7,0,0,1,70,195.9a6.07,6.07,0,0,1-3-5.36Z"/><path class="cls-1" d="M89.29,181.22v10.87a1.35,1.35,0,0,0,1.31,1.34h1.67v3H90.64a4.32,4.32,0,0,1-4.32-4.32V181.22h-3v-2.39h3v-6.25h3v6.25h3v2.39Z"/><path class="cls-1" d="M108.6,191.3c0,3.87-3.48,5.63-7.1,5.51-4.63-.14-7.23-3.12-7.23-6.07H97c0,1.76,1.83,3.44,4.5,3.53s4.06-1.15,4.06-2.69c0-1.15-1.1-1.75-2.62-2.18l-4-1.07c-1.89-.51-4.28-2.06-4.28-4.77s3-5.14,6.67-5.14c4.41,0,7.08,3,6.67,5.44h-2.73c0-1.78-1.7-2.89-3.79-2.89s-3.79,1.05-3.79,2.35.91,1.81,2.22,2.18l4.13,1.11C106.09,187.15,108.6,188.38,108.6,191.3Z"/><path class="cls-1" d="M110.89,174.06c0-.82.89-1.49,2-1.49s2,.67,2,1.49-.9,1.49-2,1.49S110.89,174.88,110.89,174.06Zm.51,22.34V178.84h3V196.4Z"/><path class="cls-1" d="M124.81,178.84a5.14,5.14,0,0,1,4.46,2.63v-8.9h3V196.4h-3v-2.63a5.25,5.25,0,0,1-4.46,3c-4.12.14-7.45-4-7.45-9S120.69,178.84,124.81,178.84Zm0,15.44c2.46,0,4.46-2,4.46-6.45s-2-6.45-4.46-6.45-4.47,2.85-4.47,6.45S122.34,194.28,124.81,194.28Z"/><path class="cls-1" d="M151.29,188.17H138.15c.2,3.9,2.46,6.05,5.15,6.09a5,5,0,0,0,4.72-3.71H151a7.63,7.63,0,0,1-7.67,6.27c-4.62,0-8-3.35-8-9.21s3.48-9.2,8-9.2,8,3.37,8,9.2C151.3,187.8,151.29,188,151.29,188.17Zm-3-2.38c-.59-2.94-2.59-4.78-5-4.82s-4.4,1.9-5,4.82Z"/><path class="cls-1" d="M177.13,193.85v2.56H161.94V172.57h3v21.28Z"/><path class="cls-1" d="M178.56,174.06c0-.82.89-1.49,2-1.49s2,.67,2,1.49-.9,1.49-2,1.49S178.56,174.88,178.56,174.06Zm.51,22.34V178.84h3V196.4Z"/><path class="cls-1" d="M201.09,178.84l-5.9,17.57h-4.86l-6.05-17.57h3.18l5.29,16.34,5.16-16.34Z"/><path class="cls-1" d="M202.84,174.06c0-.82.89-1.49,2-1.49s2,.67,2,1.49-.9,1.49-2,1.49S202.84,174.88,202.84,174.06Zm.51,22.34V178.84h3V196.4Z"/><path class="cls-1" d="M224.34,184.7v11.71h-3V184.66c0-2-1.39-3.68-4.15-3.68-2.58,0-4.14,1.63-4.14,3.68v11.75h-3V178.84h3V181a5.86,5.86,0,0,1,4.56-2.6C221.41,178.42,224.34,181.07,224.34,184.7Z"/><path class="cls-1" d="M239.59,192a5.6,5.6,0,0,1,3.09,4.75c0,3.28-3.45,5.93-7.71,5.93s-7.7-2.65-7.7-5.93a3.46,3.46,0,0,1,0-.46h2.78a1.39,1.39,0,0,0,0,.35c0,1.7,2.33,3.49,4.94,3.49,3.3,0,4.95-1.79,4.95-3.49s-1.15-3.21-4.86-3.28c-5.84-.11-8-3.93-8-7.15a7.62,7.62,0,0,1,7.85-7.36,8.45,8.45,0,0,1,3.27.66l2.62-2.62,2,2-2.22,2.22a7.11,7.11,0,0,1,2.22,5.14A6.91,6.91,0,0,1,239.59,192Zm.2-5.78a4.86,4.86,0,1,0-4.86,4.8A4.69,4.69,0,0,0,239.79,186.21Z"/></g></g></svg>