<svg xmlns="http://www.w3.org/2000/svg" viewBox="0 0 63.66 67.66"><defs><style>.cls-1{fill:#010101;}</style></defs><g id="Layer_2" data-name="Layer 2"><g id="Layer_1-2" data-name="Layer 1"><path class="cls-1" d="M12.67,67.66A3.37,3.37,0,0,0,14.74,67a1.59,1.59,0,0,0,.24-.2L25,57.59l8.84-7.81,0,0,4.81-4.24a3.21,3.21,0,0,0,1-1.16c1.08-2.13-.4-4.85-3.09-7.41.44-.25.91-.5,1.39-.75a1,1,0,1,0-.89-1.77c-.74.37-1.44.76-2.09,1.14a33.05,33.05,0,0,0-3.95-2.71,5,5,0,0,0,1.84-2.11,5.5,5.5,0,0,0,.27-4.1,3.5,3.5,0,0,1,2.21-4.56,5.47,5.47,0,0,0,3.32-6.85,3.48,3.48,0,0,1,.13-2.76A1,1,0,0,0,37,11.61a5.4,5.4,0,0,0-.27,4.1,3.51,3.51,0,0,1-2.21,4.57,5.45,5.45,0,0,0-3.32,6.84A3.51,3.51,0,0,1,29,31.69l-.07,0A33.48,33.48,0,0,0,21.58,29c0-.65-.09-1.29-.14-1.92a1,1,0,0,0-1.08-.9h0a1,1,0,0,0-.9,1.08c0,.45.07.91.11,1.38l-.45-.06c-3.31-.35-5.61.4-6.48,2.1a3.93,3.93,0,0,0-.2.54.42.42,0,0,0,0,.1v.07h0a3.24,3.24,0,0,0-.09.89v.15L10.67,50.29l-.15,1.44v.05L9.24,63.85a3.35,3.35,0,0,0,.87,2.66A3.45,3.45,0,0,0,12.67,67.66Zm4.9-37a12.59,12.59,0,0,1,1.32.08c.26,0,.53.06.81.11.08,2,.1,4.1,0,6.29a1,1,0,0,0,1,1h.11a1,1,0,0,0,.91-1q.07-3.07,0-5.93a30.82,30.82,0,0,1,5.13,1.86A5.08,5.08,0,0,0,26,34.44a1,1,0,0,0,.46,1.33.93.93,0,0,0,.52.09,1,1,0,0,0,.8-.55,3.06,3.06,0,0,1,1-1.21A32.19,32.19,0,0,1,33,36.83a29.18,29.18,0,0,0-3.61,2.86,1,1,0,0,0,0,1.4,1,1,0,0,0,.8.3,1,1,0,0,0,.6-.27,28.89,28.89,0,0,1,3.83-3c2.48,2.25,3.55,4.28,3.07,5.21a1.18,1.18,0,0,1-.17.24l-.18.15c-1.51,1.1-6.72.76-13.09-2.47a28,28,0,0,1-7.85-5.64,6.64,6.64,0,0,1-1.9-3.27l.05-.56s0-.09,0-.13C14.94,31.05,16,30.7,17.57,30.7ZM11.45,64.08,12.72,52v0l.15-1.41L14.15,36.4c.2.25.41.49.64.74a30.14,30.14,0,0,0,8.47,6.12,29.08,29.08,0,0,0,11,3.27l-1.8,1.59,0,0-8.83,7.79L13.48,65.12l-.09.07A1.22,1.22,0,0,1,11.74,65,1.17,1.17,0,0,1,11.45,64.08Z"/><path class="cls-1" d="M44.61,22.82a2.58,2.58,0,1,0,3.47-1.12A2.59,2.59,0,0,0,44.61,22.82Z"/><path class="cls-1" d="M26.6,4.89a2.59,2.59,0,1,0-1.13-3.48A2.58,2.58,0,0,0,26.6,4.89Zm0-2.92a1.35,1.35,0,1,1,.59,1.81A1.36,1.36,0,0,1,26.57,2Z"/><path class="cls-1" d="M49.75,46.31a2.58,2.58,0,1,0,3.48-1.13A2.58,2.58,0,0,0,49.75,46.31Zm2.91,0a1.35,1.35,0,1,1-1.81.59A1.34,1.34,0,0,1,52.66,46.28Z"/><path class="cls-1" d="M11.8,27.52a2.58,2.58,0,1,0-1.12-3.47A2.59,2.59,0,0,0,11.8,27.52Zm0-2.91a1.35,1.35,0,1,1,.59,1.81A1.35,1.35,0,0,1,11.78,24.61Z"/><path class="cls-1" d="M46.35,42.24a.63.63,0,0,0,.65-.06l1.47-1.09,1.73.59a.62.62,0,0,0,.78-.79l-.58-1.73,1.09-1.46a.62.62,0,0,0-.5-1l-1.83,0-1-1.49a.62.62,0,0,0-.6-.25.61.61,0,0,0-.5.42l-.54,1.75-1.75.54a.62.62,0,0,0-.17,1.09L46,39.85l0,1.83A.61.61,0,0,0,46.35,42.24Zm.8-4a.61.61,0,0,0,.4-.4l.27-.86.52.73a.59.59,0,0,0,.51.26h.9l-.54.72a.65.65,0,0,0-.09.57l.29.85-.85-.29a.64.64,0,0,0-.57.09l-.72.54v-.9A.62.62,0,0,0,47,39l-.73-.52Z"/><path class="cls-1" d="M23.16,15.55l1.49,1.05,0,1.83A.63.63,0,0,0,25,19a.59.59,0,0,0,.65-.06l1.47-1.09,1.73.59a.62.62,0,0,0,.78-.78L29,15.92l1.1-1.47a.62.62,0,0,0-.51-1l-1.82,0L26.71,12a.61.61,0,0,0-.6-.25.62.62,0,0,0-.49.43l-.54,1.74-1.75.54a.63.63,0,0,0-.43.5A.62.62,0,0,0,23.16,15.55ZM25.75,15a.62.62,0,0,0,.41-.41l.27-.86.52.74a.62.62,0,0,0,.51.26h.9l-.54.72a.61.61,0,0,0-.09.57l.29.85-.85-.29a.61.61,0,0,0-.57.09l-.72.53V16.3a.65.65,0,0,0-.26-.52l-.74-.52Z"/><path class="cls-1" d="M42.53,2.91l1,.71,0,1.24a.43.43,0,0,0,.68.35l1-.75,1.18.4a.39.39,0,0,0,.43-.1.42.42,0,0,0,.1-.43l-.4-1.17.74-1a.41.41,0,0,0,0-.44.43.43,0,0,0-.38-.23l-1.24,0L45,.49a.43.43,0,0,0-.75.12l-.37,1.18-1.18.37a.41.41,0,0,0-.29.34A.42.42,0,0,0,42.53,2.91Z"/><path class="cls-1" d="M60.58,20.65l-1.58,0-.91-1.3a.56.56,0,0,0-.53-.22.55.55,0,0,0-.42.37L56.66,21l-1.51.47a.53.53,0,0,0-.37.42.53.53,0,0,0,.22.52l1.29.92,0,1.58a.54.54,0,0,0,.29.49.55.55,0,0,0,.57-.05l1.27-.95,1.5.51a.52.52,0,0,0,.55-.13.55.55,0,0,0,.13-.55l-.51-1.5,1-1.26a.56.56,0,0,0,0-.57A.55.55,0,0,0,60.58,20.65Z"/><path class="cls-1" d="M62.28,34.45a1.26,1.26,0,1,0,1.37,1.13A1.25,1.25,0,0,0,62.28,34.45Z"/><path class="cls-1" d="M36.17,26.93a1.26,1.26,0,0,0,.23,2.51,1.26,1.26,0,1,0-.23-2.51Z"/><path class="cls-1" d="M7,9.75A1.27,1.27,0,0,0,8.12,8.38,1.26,1.26,0,1,0,7,9.75Z"/><path class="cls-1" d="M52.07,9.31A1.26,1.26,0,1,0,50.7,8.17,1.26,1.26,0,0,0,52.07,9.31Z"/><path class="cls-1" d="M1.38,26.93a1.25,1.25,0,0,0,1.13-1.37,1.26,1.26,0,1,0-2.5.23A1.25,1.25,0,0,0,1.38,26.93Z"/><path class="cls-1" d="M12.29,8.26s4.22,2.51,6.32,13.06a1,1,0,0,0,1.06.8l.11,0a1,1,0,0,0,.78-1.17C18.28,9.5,13.48,6.65,13.27,6.53a1,1,0,0,0-1,1.73Z"/><path class="cls-1" d="M43,34.23a21.55,21.55,0,0,1,8.86-.68h.22a1,1,0,0,0,.06-2,23.61,23.61,0,0,0-9.68.74A1,1,0,0,0,43,34.23Z"/></g></g></svg>