<svg xmlns="http://www.w3.org/2000/svg" viewBox="0 0 67.81 65.96"><defs><style>.cls-1{fill:#010101;}</style></defs><g id="Layer_2" data-name="Layer 2"><g id="Layer_1-2" data-name="Layer 1"><path class="cls-1" d="M48.11,58.68H17a17,17,0,0,1-.15-34,17.35,17.35,0,0,1,6.77,1.19C24.62,26.31,47.05,36,54,40.84c2.54,1.74,3.83,4.43,3.83,8a9.85,9.85,0,0,1-9.72,9.84ZM17.39,26.92H17c-8.41.28-14.75,6.6-14.75,14.71A14.85,14.85,0,0,0,17,56.47H48a7.64,7.64,0,0,0,7.63-7.63c0-2.83-.94-4.85-2.86-6.17C46,38,23,28,22.78,27.94A15.29,15.29,0,0,0,17.39,26.92Z"/><path class="cls-1" d="M17.51,50a8.56,8.56,0,1,1,8.55-8.55,1.11,1.11,0,1,1-2.21,0,6.34,6.34,0,1,0-6.34,6.33,1.11,1.11,0,1,1,0,2.22Z"/><path class="cls-1" d="M27,49.85a1.07,1.07,0,0,1-.67-.23l-9.53-7.27a1.11,1.11,0,0,1,1.35-1.77l9.53,7.28a1.1,1.1,0,0,1,.2,1.55A1.08,1.08,0,0,1,27,49.85Z"/><path class="cls-1" d="M31.19,50.37H22.36a1.11,1.11,0,0,1,0-2.22h8.83a1.11,1.11,0,0,1,0,2.22Z"/><path class="cls-1" d="M12,66a1,1,0,0,1-.45-.1A1.11,1.11,0,0,1,11,64.39l3.12-6.92a1.11,1.11,0,1,1,2,.91L13,65.3A1.11,1.11,0,0,1,12,66Z"/><path class="cls-1" d="M16.12,66H8.67a1.11,1.11,0,0,1,0-2.22h7.45a1.11,1.11,0,1,1,0,2.22Z"/><path class="cls-1" d="M54.05,66a1.11,1.11,0,0,1-1-.66l-3.12-6.92a1.11,1.11,0,0,1,2-.91l3.11,6.92a1.1,1.1,0,0,1-.55,1.47A1.06,1.06,0,0,1,54.05,66Z"/><path class="cls-1" d="M57.34,66H49.9a1.11,1.11,0,1,1,0-2.22h7.44a1.11,1.11,0,1,1,0,2.22Z"/><path class="cls-1" d="M24.09,14.6H8.85a1.54,1.54,0,0,1-.3,0C4.33,13.4,3.75,10.89,3.78,9.5,3.83,7,6,4.5,7.73,4.09c2.79-.65,13.05,2.66,16.63,4.22a3.13,3.13,0,0,1,2.08,2.33c.31,1.83-1.4,3.48-1.6,3.66A1.09,1.09,0,0,1,24.09,14.6ZM9,12.38H23.61A2.21,2.21,0,0,0,24.25,11c-.05-.3-.51-.55-.78-.66C19.08,8.42,10,5.84,8.23,6.25A4,4,0,0,0,6,9.54C6,10.84,7,11.79,9,12.38Z"/><path class="cls-1" d="M17.48,26.55a1.11,1.11,0,0,1-1.11-1.11V14.27a1.11,1.11,0,0,1,2.22,0V25.44A1.11,1.11,0,0,1,17.48,26.55Z"/><path class="cls-1" d="M13.09,26.55A1.11,1.11,0,0,1,12,25.44V14.27a1.11,1.11,0,0,1,2.22,0V25.44A1.11,1.11,0,0,1,13.09,26.55Z"/><path class="cls-1" d="M47.3,39.29a.92.92,0,0,1-.36-.07,1.11,1.11,0,0,1-.69-1.41L56.06,9.29a1.11,1.11,0,0,1,2.1.73L48.35,38.54A1.11,1.11,0,0,1,47.3,39.29Z"/><path class="cls-1" d="M55.93,10.59c-3.37,0-7.33-.2-8-.23a1.11,1.11,0,0,1-1-1.17,1.12,1.12,0,0,1,1.17-1c3.82.2,10.4.38,11.8,0s3.44-.86,5.8-7.44A1.11,1.11,0,0,1,67.07.07a1.09,1.09,0,0,1,.67,1.41c-2.55,7.11-4.93,8.24-7.35,8.85A24.24,24.24,0,0,1,55.93,10.59Z"/></g></g></svg>