<svg xmlns="http://www.w3.org/2000/svg" viewBox="0 0 59.09 67.24"><defs><style>.cls-1{fill:#010101;}</style></defs><g id="Layer_2" data-name="Layer 2"><g id="Layer_1-2" data-name="Layer 1"><path class="cls-1" d="M5.5,67.24a6.31,6.31,0,0,1-4-1.16A4.14,4.14,0,0,1,0,62.32c.37-4.79,7.63-7.72,13.46-10.07a35.85,35.85,0,0,0,5.15-2.35c4.1-2.73,2.08-12.4,1-15.9a1,1,0,0,1,2-.63c.18.57,4.45,14.09-1.78,18.24a36,36,0,0,1-5.52,2.54c-5,2-11.91,4.81-12.18,8.33a2.17,2.17,0,0,0,.68,2c1.26,1,4.23.92,8.16-.26,2.19-.66,5.1-1.82,8.18-3,7.14-2.84,14.53-5.77,18-4.73a1,1,0,1,1-.59,2c-2.78-.84-10.46,2.22-16.64,4.67-3.12,1.24-6.07,2.41-8.35,3.09A21.21,21.21,0,0,1,5.5,67.24Z"/><path class="cls-1" d="M54.94,67a34.74,34.74,0,0,1-6.67-1.1l-1.88-.42c-.86-.19-1.9-.5-3.11-.86-3.34-1-7.91-2.38-11.87-2a1,1,0,1,1-.21-2c4.37-.45,9.17,1,12.67,2,1.17.35,2.18.65,3,.82l1.9.42c3.68.82,6.86,1.53,7.85.64.41-.36.55-1.17.41-2.4-.41-3.74-8.36-6.5-13.62-8.32a37.81,37.81,0,0,1-5.57-2.21C31.24,47.85,35.5,34,35.69,33.38a1,1,0,1,1,2,.61c-1.12,3.58-3.09,13.41,1.17,15.88a38,38,0,0,0,5.22,2c6.43,2.23,14.44,5,15,10,.21,1.95-.14,3.31-1.09,4.16A4.29,4.29,0,0,1,54.94,67Z"/><path class="cls-1" d="M28.76,20.24c-4,0-7.33-5-7.33-11.07C21.43,4.61,24,0,28.76,0c4.53,0,7.34,3.51,7.34,9.17C36.1,15.27,32.81,20.24,28.76,20.24Zm0-18.18c-4.18,0-5.28,4.65-5.28,7.11,0,4.8,2.47,9,5.28,9S34,14,34,9.17C34,7.5,33.66,2.06,28.76,2.06Z"/><path class="cls-1" d="M6.25,51.34a8.44,8.44,0,0,1-1.12-.08,1,1,0,0,1,.28-2,5.86,5.86,0,0,0,5.37-2c.47-.65,1.15-4.62,1.7-7.81a94.72,94.72,0,0,1,2.66-12.35c1.06-3.17,5.41-3.86,8-4.27a11.69,11.69,0,0,0,1.61-.32,11.91,11.91,0,0,0,.39-3.58,1,1,0,0,1,1-1h0a1,1,0,0,1,1,1c0,1.6-.11,4.42-1.27,5.29a5.79,5.79,0,0,1-2.45.67c-2.14.34-5.72.91-6.38,2.89a92.3,92.3,0,0,0-2.58,12.05c-.87,5-1.35,7.68-2.08,8.67A7.69,7.69,0,0,1,6.25,51.34Z"/><path class="cls-1" d="M51.38,51.34a7.68,7.68,0,0,1-6.17-2.89c-.73-1-1.18-3.59-2-8.51a87.26,87.26,0,0,0-2.51-12.1c-.67-2-4.34-2.61-6.54-3a6,6,0,0,1-2.47-.69c-1.15-.87-1.29-3.69-1.26-5.29a1,1,0,0,1,1-1h0a1,1,0,0,1,1,1A9.44,9.44,0,0,0,33,22.57l1.53.26c2.66.45,7.09,1.2,8.15,4.36a89.57,89.57,0,0,1,2.59,12.42c.51,3.12,1.14,7,1.6,7.63a5.87,5.87,0,0,0,5.37,2,1,1,0,1,1,.28,2A8.47,8.47,0,0,1,51.38,51.34Z"/></g></g></svg>